<svg id="Layer_2" data-name="Layer 2" xmlns="http://www.w3.org/2000/svg" xmlns:xlink="http://www.w3.org/1999/xlink" viewBox="0 0 421 609"><defs><style>.cls-1{fill:url(#linear-gradient);}.cls-2{fill:url(#linear-gradient-2);}.cls-3{fill:#f48833;}.cls-4{fill:#414658;}.cls-5{fill:url(#linear-gradient-3);}.cls-6{fill:url(#linear-gradient-4);}.cls-7{fill:#f16b00;}.cls-8{fill:#b55000;}.cls-9{fill:#793500;}.cls-10{fill:#dfd8ea;}</style><linearGradient id="linear-gradient" x1="33.53" y1="353" x2="395.29" y2="353" gradientUnits="userSpaceOnUse"><stop offset="0" stop-color="#3f4665"/><stop offset="0.37" stop-color="#41467c"/><stop offset="0.69" stop-color="#404673"/><stop offset="0.99" stop-color="#3f4665"/></linearGradient><linearGradient id="linear-gradient-2" x1="80.03" y1="557.29" x2="379.65" y2="557.29" gradientUnits="userSpaceOnUse"><stop offset="0" stop-color="#575ba8"/><stop offset="0.11" stop-color="#4f589f"/><stop offset="0.23" stop-color="#40528e"/><stop offset="0.99" stop-color="#575ba8"/></linearGradient><linearGradient id="linear-gradient-3" x1="31.63" y1="162.38" x2="393.29" y2="162.38" xlink:href="#linear-gradient-2"/><linearGradient id="linear-gradient-4" x1="39.86" y1="202.39" x2="391.02" y2="202.39" xlink:href="#linear-gradient-2"/></defs><path class="cls-1" d="M379,506.64l-.05,0h-.08c-33.69,8.8-76.5,15.16-123.25,17.4-15.91.76-93.35,6.87-175.53-18.74l-.06,0c-.23-.06-.46-.14-.68-.21-1.57-.49-6.27-2-6.11-3,0-.16.17-.3.41-.41L33.53,198.35h0c.19,1,4.59,2.37,6.1,2.85h.06l.08,0h.06c82.4,25.8,160.14,19.66,176.07,18.9,76.21-3.66,141.91-18.21,174.8-36.55l.46-.21c1.78-.8,4-1.93,4.07-2.65h0L384.36,487.61l-.28,11.14h0a39.11,39.11,0,0,0-.14,5.68c.08.73-2.83,1.66-4.28,2.06C379.36,506.56,379.14,506.62,379,506.64Z"/><path class="cls-2" d="M378.09,550.39c1.36,28.42-62.51,54.56-142.66,58.4S89.2,592.73,87.83,564.33l-7.8-59h0l.06,0c82.18,25.61,159.62,19.5,175.53,18.74,46.75-2.24,89.56-8.6,123.25-17.4H379l.05,0c.14,0,.36-.08.65-.15v0Z"/><path class="cls-3" d="M13.17,103.75l6.36-21.1.11,0C23.88,109.68,108.19,129,210.91,126c104.91-3.06,189.3-28.2,188.48-56.16l7.9,21.71a16.81,16.81,0,0,1,3.4,9.35c.23,7.9-6,15.6-17.41,22.67-31,19.3-100.23,34.09-181,36.44-79,2.3-147.66-7.93-180.65-24.71L31,135l-.5-.25C18.09,128.18,11,120.67,10.78,112.52A16.42,16.42,0,0,1,13.17,103.75Z"/><path class="cls-4" d="M395.24,180.63a.5.5,0,0,1,0,.12c-.07.72-2.29,1.85-4.07,2.65l0-.07c0-1.09.08-2.18.11-3.27C393.31,180,395.1,180.05,395.24,180.63Z"/><path class="cls-5" d="M391.16,183.33l0,.07-.46.21.29-.16L39.86,201.2l-8.23-65.92h0c33,16.78,101.64,27,180.65,24.71,80.77-2.35,150-17.14,181-36.44h0q-1,28.26-2,56.5C391.24,181.15,391.2,182.24,391.16,183.33Z"/><path class="cls-6" d="M391,183.45l-.29.16c-32.89,18.34-98.59,32.89-174.8,36.55-15.93.76-93.67,6.9-176.07-18.9v-.06Z"/><path class="cls-7" d="M399.39,69.82c.82,28-83.57,53.1-188.48,56.16-102.72,3-187-16.3-191.27-43.35a12.8,12.8,0,0,1-.17-1.75c-.28-9.6,9.5-18.87,26.7-27l.19,26.52c.72,24.4,75.52,42,167.09,39.36,86.48-2.52,157-22.23,164-45a8.81,8.81,0,0,0,1.35-3.69,9.61,9.61,0,0,0-1-5.13l-.07-.14c-1.38-3.28-4.15-6.4-8.15-9.29l-.07-.06c-10.95-8.8-30.76-18.09-55.06-26.16C365.23,37.91,398.88,52.35,399.39,69.82Z"/><path class="cls-8" d="M377.79,65.93a9.61,9.61,0,0,1,1,5.13,8.81,8.81,0,0,1-1.35,3.69c-4.59,7.31-20.09,13.08-41.3,17h0c-6.22,1.16-12.93,2.17-20,3-35.65,2.47-88.16-4.18-88.16-4.18-37-3.29-77.24-12.41-105.73-23.08,14.5-17,64.82-30.66,125.05-32.41,55.35-1.6,102.93,7.31,122.28,21.28l.07.06c3.95,3.19,6.73,6.31,8.15,9.29Z"/><path class="cls-3" d="M336.1,91.8c21.21-4,36.71-9.74,41.3-17-7,22.75-77.47,42.46-163.95,45-91.57,2.66-166.37-15-167.09-39.36l-.19-26.52-.1-14.77c2,21.76,90.42,50.23,166.69,57.07a523.24,523.24,0,0,0,103.3-1.32,102.47,102.47,0,0,0,20-3Z"/><path class="cls-9" d="M314.44,30.28c24.3,8.07,44.11,17.36,55.06,26.16-19.35-14-66.93-22.88-122.28-21.28-60.23,1.75-110.55,15.42-125,32.41-23.34-8.74-38.77-18.5-38-27C85.74,22.41,162.69,7.89,226.4,16c0,0,33.45,2.85,74.43,10,4.66,1.36,9.2,2.79,13.59,4.25Z"/><path class="cls-7" d="M94.81,20C72,23.66,56.59,31,56.46,39.72c-.11,7.87,12.36,15,31.57,19.54l-.13,0C77.77,54.51,71.64,46.66,72,39.74,72.42,31.86,81.37,23.38,94.81,20ZM227.9,90.65s52.51,6.65,88.16,4.18a523.24,523.24,0,0,1-103.3,1.32C136.49,89.31,48,60.84,46.07,39.08l0-1.43C47.9,16.38,136.8,2.59,211,9A469.21,469.21,0,0,1,300.83,26c-41-7.16-74.43-10-74.43-10C162.69,7.89,85.74,22.41,84.14,40.61c-.74,8.46,14.69,18.22,38,27C150.66,78.24,190.94,87.36,227.9,90.65Z"/><path d="M87.9,59.22l.13,0C68.82,54.74,56.35,47.59,56.46,39.72,56.59,31,72,23.66,94.81,20,81.37,23.38,72.42,31.86,72,39.74,71.64,46.66,77.77,54.51,87.9,59.22Z"/><polygon class="cls-10" points="39.86 201.2 39.86 201.26 39.84 201.25 39.8 201.24 39.8 201.21 39.8 201.2 39.86 201.2"/><polygon class="cls-4" points="39.31 197.21 31.63 135.28 39.86 201.2 39.8 201.2 39.31 197.21"/><path class="cls-10" d="M39.8,201.21v0l-.08,0Z"/><path class="cls-4" d="M39.31,197.21l.49,4h-.14c-1.51-.48-5.91-1.87-6.1-2.85a.41.41,0,0,1,0-.11C33.67,197.47,36.62,197.25,39.31,197.21Z"/></svg>