<svg id="Layer_2" data-name="Layer 2" xmlns="http://www.w3.org/2000/svg" xmlns:xlink="http://www.w3.org/1999/xlink" viewBox="0 0 1920 1080"><defs><style>.cls-1{fill:url(#linear-gradient);}.cls-2{fill:url(#linear-gradient-2);}.cls-3{fill:#f48833;}.cls-4{fill:#414658;}.cls-5{fill:url(#linear-gradient-3);}.cls-6{fill:url(#linear-gradient-4);}.cls-7{fill:#f16b00;}.cls-8{fill:#b55000;}.cls-9{fill:#793500;}.cls-10{fill:#dfd8ea;}</style><linearGradient id="linear-gradient" x1="1295.53" y1="714" x2="1657.29" y2="714" gradientUnits="userSpaceOnUse"><stop offset="0" stop-color="#3f4665"/><stop offset="0.37" stop-color="#41467c"/><stop offset="0.69" stop-color="#404673"/><stop offset="0.99" stop-color="#3f4665"/></linearGradient><linearGradient id="linear-gradient-2" x1="1342.03" y1="918.29" x2="1641.65" y2="918.29" gradientUnits="userSpaceOnUse"><stop offset="0" stop-color="#575ba8"/><stop offset="0.11" stop-color="#4f589f"/><stop offset="0.23" stop-color="#40528e"/><stop offset="0.99" stop-color="#575ba8"/></linearGradient><linearGradient id="linear-gradient-3" x1="1293.63" y1="523.38" x2="1655.29" y2="523.38" xlink:href="#linear-gradient-2"/><linearGradient id="linear-gradient-4" x1="1301.86" y1="563.39" x2="1653.02" y2="563.39" xlink:href="#linear-gradient-2"/></defs><path class="cls-1" d="M1641,867.64l0,0h-.08c-33.69,8.8-76.5,15.16-123.25,17.4-15.91.76-93.35,6.87-175.53-18.74a.11.11,0,0,1-.06,0c-.23-.06-.46-.14-.68-.21-1.57-.49-6.27-2-6.11-3,0-.16.17-.3.41-.41l-40.12-303.38h0c.19,1,4.59,2.37,6.1,2.85h.06l.08,0h.06c82.4,25.8,160.14,19.66,176.07,18.9,76.21-3.66,141.91-18.21,174.8-36.55l.46-.21c1.78-.8,4-1.93,4.07-2.65h0l-10.93,306.85-.28,11.14h0a39.11,39.11,0,0,0-.14,5.68c.08.73-2.83,1.66-4.28,2.06C1641.36,867.56,1641.14,867.62,1641,867.64Z"/><path class="cls-2" d="M1640.09,911.39c1.36,28.42-62.51,54.56-142.66,58.4s-146.23-16.06-147.6-44.46l-7.8-59h0a.11.11,0,0,0,.06,0c82.18,25.61,159.62,19.5,175.53,18.74,46.75-2.24,89.56-8.6,123.25-17.4h.08l0,0c.14,0,.36-.08.65-.15v0Z"/><path class="cls-3" d="M1275.17,464.75l6.36-21.1.11,0c4.24,27.05,88.55,46.33,191.27,43.35,104.91-3.06,189.3-28.2,188.48-56.16l7.9,21.71a16.81,16.81,0,0,1,3.4,9.35c.23,7.9-6,15.6-17.41,22.67-31,19.3-100.23,34.09-181,36.44-79,2.3-147.66-7.93-180.65-24.71l-.59-.3-.5-.25c-12.45-6.55-19.53-14.06-19.76-22.21A16.42,16.42,0,0,1,1275.17,464.75Z"/><path class="cls-4" d="M1657.24,541.63a.5.5,0,0,1,0,.12c-.07.72-2.29,1.85-4.07,2.65l0-.07c0-1.09.08-2.18.11-3.27C1655.31,541,1657.1,541.05,1657.24,541.63Z"/><path class="cls-5" d="M1653.16,544.33l0,.07-.46.21.29-.16L1301.86,562.2l-8.23-65.92h0c33,16.78,101.64,27,180.65,24.71,80.77-2.35,150-17.14,181-36.44h0q-1,28.26-2,56.5C1653.24,542.15,1653.2,543.24,1653.16,544.33Z"/><path class="cls-6" d="M1653,544.45l-.29.16c-32.89,18.34-98.59,32.89-174.8,36.55-15.93.76-93.67,6.9-176.07-18.9v-.06Z"/><path class="cls-7" d="M1661.39,430.82c.82,28-83.57,53.1-188.48,56.16-102.72,3-187-16.3-191.27-43.35a12.8,12.8,0,0,1-.17-1.75c-.28-9.6,9.5-18.87,26.7-27l.19,26.52c.72,24.4,75.52,42,167.09,39.36,86.48-2.52,157-22.23,164-45a8.81,8.81,0,0,0,1.35-3.69,9.61,9.61,0,0,0-1-5.13.91.91,0,0,0-.07-.14c-1.38-3.28-4.15-6.4-8.15-9.29l-.07-.06c-11-8.8-30.76-18.09-55.06-26.16C1627.23,398.91,1660.88,413.35,1661.39,430.82Z"/><path class="cls-8" d="M1639.79,426.93a9.61,9.61,0,0,1,1,5.13,8.81,8.81,0,0,1-1.35,3.69c-4.59,7.31-20.09,13.08-41.3,17.05h0c-6.22,1.16-12.93,2.17-20,3-35.65,2.47-88.16-4.18-88.16-4.18-37-3.29-77.24-12.41-105.73-23.08,14.5-17,64.82-30.66,125-32.41,55.35-1.6,102.93,7.31,122.28,21.28l.07.06c4,3.19,6.73,6.31,8.15,9.29A.91.91,0,0,1,1639.79,426.93Z"/><path class="cls-3" d="M1598.1,452.8c21.21-4,36.71-9.74,41.3-17.05-7,22.75-77.47,42.46-164,45-91.57,2.66-166.37-15-167.09-39.36l-.19-26.52-.1-14.77c2,21.76,90.42,50.23,166.69,57.07a523.24,523.24,0,0,0,103.3-1.32,102.47,102.47,0,0,0,20-3Z"/><path class="cls-9" d="M1576.44,391.28c24.3,8.07,44.11,17.36,55.06,26.16-19.35-14-66.93-22.88-122.28-21.28-60.23,1.75-110.55,15.42-125,32.41-23.34-8.74-38.77-18.5-38-27,1.6-18.2,78.55-32.72,142.26-24.59,0,0,33.45,2.85,74.43,10,4.66,1.36,9.2,2.79,13.59,4.25Z"/><path class="cls-7" d="M1356.81,381c-22.79,3.71-38.22,11.08-38.35,19.77-.11,7.87,12.36,15,31.57,19.54l-.13,0c-10.13-4.71-16.26-12.56-15.9-19.48C1334.42,392.86,1343.37,384.38,1356.81,381Zm133.09,70.7s52.51,6.65,88.16,4.18a523.24,523.24,0,0,1-103.3,1.32c-76.27-6.84-164.73-35.31-166.69-57.07l0-1.43c1.85-21.27,90.75-35.06,165-28.7A469.21,469.21,0,0,1,1562.83,387c-41-7.16-74.43-10-74.43-10-63.71-8.13-140.66,6.39-142.26,24.59-.74,8.46,14.69,18.22,38,27C1412.66,439.24,1452.94,448.36,1489.9,451.65Z"/><path d="M1349.9,420.22l.13,0c-19.21-4.52-31.68-11.67-31.57-19.54.13-8.69,15.56-16.06,38.35-19.77-13.44,3.43-22.39,11.91-22.81,19.79C1333.64,407.66,1339.77,415.51,1349.9,420.22Z"/><polygon class="cls-10" points="1301.86 562.2 1301.86 562.26 1301.84 562.25 1301.8 562.24 1301.8 562.21 1301.8 562.2 1301.86 562.2"/><polygon class="cls-4" points="1301.31 558.21 1293.63 496.28 1301.86 562.2 1301.8 562.2 1301.31 558.21"/><path class="cls-10" d="M1301.8,562.21v0l-.08,0Z"/><path class="cls-4" d="M1301.31,558.21l.49,4h-.14c-1.51-.48-5.91-1.87-6.1-2.85a.41.41,0,0,1,0-.11C1295.67,558.47,1298.62,558.25,1301.31,558.21Z"/></svg>