<svg id="Layer_1" data-name="Layer 1" xmlns="http://www.w3.org/2000/svg" viewBox="0 0 231.45 156.63"><defs><style>.cls-1{fill:#780106;}</style></defs><path class="cls-1" d="M78.84,47l43.53,156.39-28.48.24-9.28-34.14H37.54l-10,33.9H9.82L56.09,47ZM42,153.8H80.37L61.93,84.51Z" transform="translate(-9.82 -47)"/><path class="cls-1" d="M180.52,47.29,135.16,203.63H94.5L57.93,47H98.85l30.93,118.72L163.57,47.29Z" transform="translate(-9.82 -47)"/><path class="cls-1" d="M153.6,128.85l9.78-80.63c9.34-.34,8.91-.67,18.25-1q26.22,0,41.92,11C234,65.63,236.68,75,236.68,87.32c0,18.93-8.66,31.81-31.11,37.54,11.53,4.28,15.49,8.65,18.89,13.77s6.11,14.58,7.33,29.32c1.45,17.56,5.05,30,9.48,35.6H194.46q-4.69-10.89-4.7-27.15l-.23-9.28-.22-11.68q0-27-21.77-27h-7.78l-6.16.44Zm6.16-13.38h9.16q25.77,0,25.77-26.92T168.92,61.64h-9.16Z" transform="translate(-9.82 -47)"/><path class="cls-1" d="M266,211.93" transform="translate(-9.82 -47)"/></svg>