<?xml version="1.0" encoding="UTF-8" standalone="no"?>
<svg
   xmlns:dc="http://purl.org/dc/elements/1.1/"
   xmlns:cc="http://creativecommons.org/ns#"
   xmlns:rdf="http://www.w3.org/1999/02/22-rdf-syntax-ns#"
   xmlns:svg="http://www.w3.org/2000/svg"
   xmlns="http://www.w3.org/2000/svg"
   viewBox="0 0 3333.3333 3333.3333"
   height="3333.3333"
   width="3333.3333"
   xml:space="preserve"
   id="svg2"
   version="1.1"><metadata
     id="metadata8"><rdf:RDF><cc:Work
         rdf:about=""><dc:format>image/svg+xml</dc:format><dc:type
           rdf:resource="http://purl.org/dc/dcmitype/StillImage" /></cc:Work></rdf:RDF></metadata><defs
     id="defs6" /><g
     transform="matrix(1.3333333,0,0,-1.3333333,0,3333.3333)"
     id="g10"><g
       transform="scale(0.1)"
       id="g12"><g
         transform="scale(1.51289)"
         id="g14"><path
           id="path16"
           style="fill:#b5b5b5;fill-opacity:1;fill-rule:nonzero;stroke:none"
           d="M 3932.66,12921.5 C 2684.82,11993.9 5106.2,10927 5227.45,10874.5 1697.4,11961.8 3893.81,12905.3 3932.66,12921.5 Z M 10720,7591.24 c 30.7,230.09 -73.5,464.08 -267.7,610.48 306.1,-76.01 539.6,-282.64 562.6,-500.76 31.6,-300.55 -326.5,-693.71 -878.1,-672.36 307.3,43.1 545.1,277.49 583.2,562.64 z M 7436.23,3163.02 c -215.15,79.39 -362.42,276.62 -372.26,497.33 -11.5,249.72 155.4,482.85 406.37,558.8 -49.9,-66.56 -166.9,-241.2 -182.69,-493.89 -18.38,-286.87 104.63,-494.82 148.58,-562.24 z M 13893.5,13989.2 c -29,128.9 -130.6,464.5 -658.3,836.7 -426.5,301 -1014.7,543.5 -2624.1,602.8 -1688.84,61.9 -2423.99,-154.5 -3128.33,402.1 -209.2,165.2 -346.62,344.1 -429.91,469.2 -4.69,-132.3 5.16,-364.6 129.75,-601.9 0,0 125.13,-237.8 373.13,-415.8 832.05,-596.4 4201.06,-67.5 4876.86,-1146.3 44.5,-70.4 102.1,-165.6 87.2,-283 -84.6,-648.9 -2272.1,-919.1 -3426.34,-859.3 -353.49,18.3 -709.11,60.2 -709.11,60.2 -454.62,57.6 -773.09,139.1 -1293.94,216.4 -295.8,43.5 -817.49,109.7 -1285.37,131.5 -647.19,29.9 -2686.91,124.2 -3120.22,-823.5 -120.38,-263 -74.71,-513.6 -62.33,-577.6 96.92,-494.8 593.82,-865.3 1786.58,-1328.9 2281.77,-888 3725.56,-1133.49 3714,-1445.55 -12.76,-339.81 -1731.48,-417.94 -1941.51,-1250.38 -27.75,-110.13 -26.04,-221.11 -25.6,-231.82 13.22,-622.84 675.74,-779.03 662.12,-1176.48 -14.94,-435.86 -821.37,-537.06 -872.17,-1146.69 -14.52,-169.87 36.7,-297.5 55.5,-343.25 245.47,-593.76 1183.78,-618.55 1222.65,-619.41 -345.76,-271.46 -424.36,-507.17 -436.72,-665.94 -33.31,-429.05 392.76,-611.74 512.27,-1298.64 41.84,-240.34 80.71,-464.01 -42.24,-660 -197.24,-315.88 -594.69,-212.17 -861.51,-481.52 -159.23,-160.95 -288.16,-471.753 -157.53,-1127.449 113.57,545.975 331.71,767.537 513.12,867.879 251.9,139.6 403.47,84.14 1019.9,128.09 323.56,23.07 649.29,104.18 893.92,301.81 244.63,198.1 392.3,530.64 308.22,849.11 -127.63,482.78 -387.6,613.46 -310.8,897.75 93.93,347.94 652.73,271.07 960.55,797.48 50.76,87.05 151.96,265.05 133.59,489.66 -38.87,482.38 -592.12,740.63 -644.2,764.1 308.68,344.11 353.89,548.15 289.05,655.3 -68.35,112.7 -185.74,204.91 -207.48,332.54 -21.35,126.38 74.29,231.81 104.17,268.56 286.87,349.6 871.73,17.05 1550.43,362.42 131.5,66.63 446.6,232.67 520.9,546.84 0,0 35.8,153.28 -8.6,312.91 -99,357.33 -576.7,616.9 -1185.9,681.34 105.5,49.51 252.3,125.13 417.5,233.53 370.6,242.51 756,494.81 734.7,779.5 -20.5,280.92 -427.7,461.5 -525.9,502.48 49.9,34.63 99.8,69.13 149.4,103.73 887.9,346.2 1049.3,555 1032.7,681.8 -96.9,721.4 -6208.88,458 -6367.25,1225.6 -3.42,17.1 -12.38,61.5 6.4,108.4 120.82,300.6 1160.3,94.4 2215.63,-27.3 1360.51,-157.1 2197.22,-169 3854.52,5.1 562.6,58.9 1140.6,151.2 1598.7,458.5 375.6,251.9 732.5,859.4 601.9,1437.4" /></g></g></g></svg>