<!--?xml version="1.0" standalone="no"?--> 
<svg id="sw-js-blob-svg" viewBox="0 0 100 100"
    xmlns="http://www.w3.org/2000/svg">
    <defs>
        <linearGradient id="sw-gradient" x1="0" x2="1" y1="1" y2="0">
            <stop id="stop1" stop-color="rgba(0, 255, 237.578, 1)" offset="0%"></stop>
            <stop id="stop2" stop-color="rgba(9, 91, 103, 1)" offset="100%"></stop>
        </linearGradient>
    </defs>
    <path fill="url(#sw-gradient)"
        d="M21.6,-38.1C27.7,-33.9,32.3,-27.5,34.9,-20.9C37.6,-14.2,38.3,-7.1,39,0.4C39.7,7.9,40.3,15.8,37.6,22.2C34.8,28.7,28.6,33.8,21.8,36.9C15,39.9,7.5,40.9,0.9,39.4C-5.7,37.9,-11.4,33.8,-15.7,29.2C-19.9,24.7,-22.6,19.7,-26.2,14.7C-29.8,9.8,-34.2,4.9,-36.5,-1.3C-38.8,-7.5,-38.9,-15,-34.9,-19.3C-31,-23.7,-23,-24.8,-16.5,-28.8C-10,-32.8,-5,-39.7,1.4,-42.1C7.7,-44.5,15.5,-42.3,21.6,-38.1Z"
        width="100%" height="100%" transform="translate(50 50)" style="transition: 0.3s;" stroke-width="0"
        stroke="url(#sw-gradient)"></path>
</svg>